<svg width="16" height="16" viewBox="0 0 16 16" fill="none" xmlns="http://www.w3.org/2000/svg">
<g clip-path="url(#clip0_1_218)">
<g clip-path="url(#clip1_1_218)">
<path fill-rule="evenodd" clip-rule="evenodd" d="M12 4H7V7V15H12H15V7H12V4ZM13 5H14V6H13V5Z" fill="url(#paint0_linear_1_218)"/>
<path fill-rule="evenodd" clip-rule="evenodd" d="M7 3H12H13V4H14V5H15V6H16V7V15V16H15L7 16H6V15V4V3H7ZM7 15V4H12V6V7H13H15V15H7ZM14 5H13L13 6H14V5Z" fill="black"/>
</g>
<g opacity="0.5" clip-path="url(#clip2_1_218)">
<path d="M3 1V11H2V13H1V15H9V14H11V13H12V12H13V5H12V4H11V3H10V2H9V1H3Z" fill="black"/>
</g>
<g clip-path="url(#clip3_1_218)">
<path fill-rule="evenodd" clip-rule="evenodd" d="M7 1H3V5H2V11H1V13H3H4H7V11H11V5H7V1ZM9 2H8V3V4H9H10V3H9V2Z" fill="url(#paint1_linear_1_218)"/>
<path d="M10 10H6V13H10V10Z" fill="url(#paint2_linear_1_218)"/>
<path fill-rule="evenodd" clip-rule="evenodd" d="M7 0H3H2V1V10H3V1H7V4V5H8H11V10H10V12H11V11H12V5V4H11V3H10V4H8L8 2H9V1H8V0H7ZM9 2H10V3H9V2ZM8 13V12H10V13H8ZM8 13V14H4V13H8ZM1 12H2V10H1V12ZM1 12H0V14H1V12Z" fill="url(#paint3_linear_1_218)"/>
<path fill-rule="evenodd" clip-rule="evenodd" d="M7 9H8V10H7V11V12H6V13H5V14H1V13H4V12H5V11H6V10V9H7ZM8 10H10V11H8V10Z" fill="#06070A"/>
<rect x="4" y="2" width="3" height="1" fill="#06070A"/>
<rect x="4" y="4" width="3" height="1" fill="#06070A"/>
<rect x="4" y="6" width="5" height="1" fill="#06070A"/>
</g>
</g>
<defs>
<linearGradient id="paint0_linear_1_218" x1="11" y1="4" x2="11" y2="15" gradientUnits="userSpaceOnUse">
<stop stop-color="#7B818D"/>
<stop offset="1" stop-color="#484A58"/>
</linearGradient>
<linearGradient id="paint1_linear_1_218" x1="6" y1="1" x2="6" y2="13" gradientUnits="userSpaceOnUse">
<stop stop-color="#CCD1F9"/>
<stop offset="1" stop-color="#B2B4BE"/>
</linearGradient>
<linearGradient id="paint2_linear_1_218" x1="8" y1="10" x2="8" y2="13" gradientUnits="userSpaceOnUse">
<stop stop-color="#7A808C"/>
<stop offset="1" stop-color="#4A4C5A"/>
</linearGradient>
<linearGradient id="paint3_linear_1_218" x1="6" y1="0" x2="6" y2="14" gradientUnits="userSpaceOnUse">
<stop stop-color="#989CB7"/>
<stop offset="1" stop-color="#5C5C5C"/>
</linearGradient>
<clipPath id="clip0_1_218">
<rect width="16" height="16" fill="white"/>
</clipPath>
<clipPath id="clip1_1_218">
<rect width="10" height="13" fill="white" transform="translate(6 3)"/>
</clipPath>
<clipPath id="clip2_1_218">
<rect width="12" height="14" fill="white" transform="translate(1 1)"/>
</clipPath>
<clipPath id="clip3_1_218">
<rect width="12" height="14" fill="white"/>
</clipPath>
</defs>
</svg>
