<svg width="16" height="16" viewBox="0 0 16 16" fill="none" xmlns="http://www.w3.org/2000/svg">
<g clip-path="url(#clip0_201_3)">
<g clip-path="url(#clip1_201_3)" filter="url(#filter0_d_201_3)">
<path d="M6.5 3.5H12.5L15.5 6.5V15.5H6.5V3.5Z" fill="url(#paint0_linear_201_3)"/>
<path fill-rule="evenodd" clip-rule="evenodd" d="M6 3H12.7071L16 6.29289V16H6V3ZM7 4V15H15V6.70711L12.2929 4H7Z" fill="black"/>
<path fill-rule="evenodd" clip-rule="evenodd" d="M8 6H11V7H8V6ZM8 8H14V9H8V8ZM8 10H14V11H8V10Z" fill="black"/>
<path fill-rule="evenodd" clip-rule="evenodd" d="M12 3.5L12.8536 3.14645L15.8536 6.14645L15.5 7H12.5L12 6.5V3.5ZM13 4.70711V6H14.2929L13 4.70711Z" fill="black"/>
</g>
<g clip-path="url(#clip2_201_3)" filter="url(#filter1_d_201_3)">
<path d="M11.5 0.5H2.5V6C2.5 10.5 0.5 12.5 0.5 12.5H4.5C9 12 10 10 10.5 9.5C11.2906 8.70943 11.5 7.5 11.5 3.5V0.5Z" fill="url(#paint1_linear_201_3)"/>
<path d="M4.5 12.5C8.33351 12.1185 9.74654 10.4854 10.5 9.5C9 9.5 7.5 9 6.5 8.5C6.5 12 0.5 12.5 0.5 12.5H4.5Z" fill="url(#paint2_linear_201_3)"/>
<path fill-rule="evenodd" clip-rule="evenodd" d="M6 8.5L6.72361 8.05279C7.67681 8.52939 9.09948 9 10.5 9L10.8972 9.8037C10.5053 10.3163 9.92063 11.0251 8.92001 11.6505C7.91997 12.2755 6.53256 12.8002 4.54952 12.9975L4.52482 13H0.5L0.458634 12.0055C0.458302 12.0017 0.458263 12.0017 0.458263 12.0017L0.460536 12.0015L0.471039 12.0006L0.516263 11.9962C0.556817 11.992 0.617629 11.9853 0.695795 11.9755C0.852236 11.956 1.07756 11.9241 1.34866 11.8751C1.89298 11.7769 2.61165 11.6116 3.32444 11.3443C4.80265 10.79 6 9.9034 6 8.5ZM4.34223 12H4.47497C6.31186 11.814 7.55342 11.4112 8.40287 10.8803C8.85247 10.5993 9.19078 10.2217 9.4753 9.93176C8.54065 9.81058 7.65284 9.54194 6.91989 9.23958C6.61454 10.5992 5.48328 11.4618 4.34223 12Z" fill="black"/>
<path fill-rule="evenodd" clip-rule="evenodd" d="M2 0H12V3.5C12 5.4978 11.9485 6.83888 11.7896 7.78626C11.6272 8.75424 11.3445 9.36265 10.8536 9.85355C10.8239 9.88323 10.7777 9.94044 10.7148 10.0183C10.4786 10.3109 10.007 10.8952 9.29062 11.4069C8.33618 12.0886 6.87705 12.739 4.55521 12.9969L4.52769 13H0.499999L0.146867 12.1475C0.146125 12.1468 0.146103 12.1468 0.14608 12.1468L0.156367 12.1359C0.166803 12.1247 0.184044 12.1057 0.207132 12.0789C0.253314 12.0253 0.322855 11.9404 0.408131 11.8231C0.578663 11.5886 0.812099 11.225 1.04759 10.7246C1.51766 9.72571 2 8.17316 2 6V0ZM1.49282 12H4.47209C6.63375 11.756 7.91714 11.159 8.70938 10.5931C9.29476 10.175 9.58709 9.813 9.83125 9.51064C9.93869 9.37759 10.0368 9.25609 10.1464 9.14645C10.4461 8.84679 10.6634 8.45519 10.8034 7.62081C10.9468 6.76583 11 5.5022 11 3.5V1H3V6C3 8.32684 2.48234 10.0243 1.95241 11.1504C1.79547 11.4839 1.63781 11.7665 1.49282 12Z" fill="url(#paint3_linear_201_3)"/>
<path fill-rule="evenodd" clip-rule="evenodd" d="M4 2H10V3H4V2ZM4 4H10V5H4V4ZM4 6H10V7H4V6Z" fill="black"/>
</g>
</g>
<defs>
<filter id="filter0_d_201_3" x="6" y="3" width="11" height="14" filterUnits="userSpaceOnUse" color-interpolation-filters="sRGB">
<feFlood flood-opacity="0" result="BackgroundImageFix"/>
<feColorMatrix in="SourceAlpha" type="matrix" values="0 0 0 0 0 0 0 0 0 0 0 0 0 0 0 0 0 0 127 0" result="hardAlpha"/>
<feOffset dx="1" dy="1"/>
<feColorMatrix type="matrix" values="0 0 0 0 0 0 0 0 0 0 0 0 0 0 0 0 0 0 0.25 0"/>
<feBlend mode="normal" in2="BackgroundImageFix" result="effect1_dropShadow_201_3"/>
<feBlend mode="normal" in="SourceGraphic" in2="effect1_dropShadow_201_3" result="shape"/>
</filter>
<filter id="filter1_d_201_3" x="0" y="0" width="13" height="14" filterUnits="userSpaceOnUse" color-interpolation-filters="sRGB">
<feFlood flood-opacity="0" result="BackgroundImageFix"/>
<feColorMatrix in="SourceAlpha" type="matrix" values="0 0 0 0 0 0 0 0 0 0 0 0 0 0 0 0 0 0 127 0" result="hardAlpha"/>
<feOffset dx="1" dy="1"/>
<feColorMatrix type="matrix" values="0 0 0 0 0 0 0 0 0 0 0 0 0 0 0 0 0 0 0.25 0"/>
<feBlend mode="normal" in2="BackgroundImageFix" result="effect1_dropShadow_201_3"/>
<feBlend mode="normal" in="SourceGraphic" in2="effect1_dropShadow_201_3" result="shape"/>
</filter>
<linearGradient id="paint0_linear_201_3" x1="11" y1="3.5" x2="11" y2="15.5" gradientUnits="userSpaceOnUse">
<stop stop-color="#7B818D"/>
<stop offset="1" stop-color="#484A58"/>
</linearGradient>
<linearGradient id="paint1_linear_201_3" x1="6" y1="0.5" x2="6" y2="12.5" gradientUnits="userSpaceOnUse">
<stop stop-color="#CCD1F9"/>
<stop offset="1" stop-color="#B2B4BE"/>
</linearGradient>
<linearGradient id="paint2_linear_201_3" x1="5.5" y1="8.5" x2="5.5" y2="12.5" gradientUnits="userSpaceOnUse">
<stop stop-color="#7A808C"/>
<stop offset="1" stop-color="#4A4C5A"/>
</linearGradient>
<linearGradient id="paint3_linear_201_3" x1="6.07304" y1="0" x2="6.07304" y2="13" gradientUnits="userSpaceOnUse">
<stop stop-color="#989CB7"/>
<stop offset="1" stop-color="#5C5C5C"/>
</linearGradient>
<clipPath id="clip0_201_3">
<rect width="16" height="16" fill="white"/>
</clipPath>
<clipPath id="clip1_201_3">
<rect width="10" height="13" fill="white" transform="translate(6 3)"/>
</clipPath>
<clipPath id="clip2_201_3">
<rect width="12" height="13" fill="white"/>
</clipPath>
</defs>
</svg>
