<svg width="16" height="16" viewBox="0 0 16 16" fill="none" xmlns="http://www.w3.org/2000/svg">
<path d="M14.8351 2.45796C15.055 2.66802 15.055 3.02813 14.8351 3.2482L13.8157 4.25852L11.737 2.17787L12.7564 1.15755C12.9663 0.947484 13.326 0.947484 13.5359 1.15755L14.8351 2.45796Z" fill="currentColor"/>
<path d="M7 9V6.91935L11.1474 2.76805L13.2261 4.8487L9.0787 9H7Z" fill="currentColor"/>
<path fill-rule="evenodd" clip-rule="evenodd" d="M5.95795 11.151C5.29309 11.032 4.80508 10.8883 4.49736 10.7398C4.43508 10.7098 4.3871 10.6831 4.35042 10.6605C4.39679 10.6138 4.46685 10.5518 4.57183 10.4746C4.93206 10.2096 5.54937 9.88435 6.50509 9.50933L5.95718 8.11298C4.95588 8.50588 4.19815 8.8874 3.68311 9.2662C3.21741 9.60871 2.71998 10.1196 2.77558 10.8014C2.83182 11.491 3.41238 11.8818 3.84547 12.0908C4.33272 12.3259 4.97503 12.4989 5.69365 12.6275C6.10515 12.7012 6.42398 12.7797 6.66454 12.8566C5.53946 13.2603 3.27761 13.4716 1.14956 12.9557L0.796188 14.4135C3.21654 15.0002 5.82977 14.7754 7.24994 14.2395C7.60311 14.1062 7.95739 13.9267 8.21164 13.6775C8.34289 13.5489 8.47947 13.3704 8.5485 13.1374C8.62266 12.8871 8.60269 12.6257 8.49369 12.3886C8.30225 11.9723 7.8873 11.7309 7.52883 11.578C7.13196 11.4087 6.60801 11.2674 5.95795 11.151ZM4.23993 10.5751L4.24163 10.5774L4.23993 10.5751Z" fill="currentColor"/>
</svg>
