<svg width="32" height="32" viewBox="0 0 32 32" fill="none" xmlns="http://www.w3.org/2000/svg">
<path fill-rule="evenodd" clip-rule="evenodd" d="M9 3C7.34315 3 6 4.34315 6 6V23H20.8027C21.681 21.4817 23.2054 20.384 25 20.083V7V6C25 5.44772 25.4477 5 26 5C26.5523 5 27 5.44772 27 6V7H29V6C29 4.34315 27.6569 3 26 3H25H24H9ZM3 25H20.083C20.0284 25.3252 20 25.6593 20 26C20 27.0929 20.2922 28.1175 20.8027 29H6C4.34315 29 3 27.6569 3 26V25ZM22 7H9V9H22V7ZM21 11H9V13H21V11ZM9 15H19V17H9V15ZM29 26L24 23V29L29 26Z" fill="black"/>
</svg>
